<svg width="21" height="16" viewBox="0 0 21 16" fill="none" xmlns="http://www.w3.org/2000/svg">
<path d="M16.0998 15.5376C18.8061 15.5376 21 13.3431 21 10.6358C21 7.92946 18.8061 5.73495 16.0998 5.73495C16.0998 5.73495 16.1235 3.91418 17.6027 1.29359C17.767 0.768511 17.4741 0.209342 16.9487 0.0459766C16.5759 -0.0712881 16.1836 0.042695 15.9303 0.308026C12.5291 4.02816 11.1977 8.40651 11.1977 10.6358C11.1977 13.3431 13.3915 15.5376 16.0998 15.5376Z" fill="white"/>
<path d="M4.90201 15.5376C7.60835 15.5376 9.80225 13.343 9.80225 10.6358C9.80225 7.92946 7.60835 5.73495 4.90201 5.73495C4.90201 5.73495 4.92572 3.91418 6.40491 1.29359C6.56922 0.768511 6.27628 0.209342 5.75091 0.0459766C5.37812 -0.0712881 4.98584 0.042695 4.73257 0.308026C1.3313 4.02816 -0.000116348 8.40651 -0.000116348 10.6358C-0.000116348 13.3431 2.19378 15.5376 4.90201 15.5376Z" fill="white"/>
</svg>
